<svg xmlns="http://www.w3.org/2000/svg" width="520" height="140" viewBox="0 0 520 140" fill="none">
  <rect width="520" height="140" rx="24" fill="white"/>
  <g fill="#2F66C8">
    <path d="M78 98c-20.987 0-38-17.013-38-38S57.013 22 78 22c12.87 0 24.25 6.39 31.2 16.2l-12.5 8.9C92.6 41 85.8 36.8 78 36.8c-12.78 0-23.2 10.42-23.2 23.2S65.22 83.2 78 83.2c7.8 0 14.6-4.2 18.7-10.2l12.5 8.9C102.25 91.61 90.87 98 78 98Z"/>
    <path d="M135 95V25h15.2v70H135Z"/>
    <path d="M174 95V25h15.2v70H174Z"/>
  </g>
  <text x="215" y="86" font-family="Montserrat, ui-sans-serif, system-ui, -apple-system, Segoe UI, Roboto, Arial" font-size="54" font-weight="700" letter-spacing="2" fill="#2F66C8">
    COZYFOAM
  </text>
  <text x="218" y="112" font-family="DM Sans, ui-sans-serif, system-ui, -apple-system, Segoe UI, Roboto, Arial" font-size="16" font-weight="500" letter-spacing="1.5" fill="#667369">
    SLEEP CLOSER TO NATURE
  </text>
</svg>
